#!OML:ASF H:\Terrain\Patient Classification 1\Takeo\Monday\TakeoMonday.ASF
:FULLY-SPECIFIED
:DEGREES
1158
root 8.90134 16.8675 -3.3948 12.7791 19.1768 -3.3208
lowerback 33.2036 1.83995 9.26714
upperback 16.7856 5.1101 -2.69366
thorax 2.43656 3.5671 -9.09591
lowerneck -15.699 5.26536 -1.05173
upperneck 25.0699 9.40474 -5.91536
head 10.9639 3.48751 -0.625196
rclavicle 3.81667e-014 -9.42239e-014
rhumerus 61.7071 54.7359 -22.8324
rradius 58.4301
rwrist -5.91772
rhand -19.9822 25.434
rfingers 7.12502
rthumb 6.35702 -4.4506
lclavicle 3.81667e-014 -9.42239e-014
lhumerus -15.423 -5.89031 83.011
lradius 68.6238
lwrist 41.1868
lhand -20.0365 19.3893
lfingers 7.12502
lthumb 6.30459 49.2755
rfemur -43.6416 -18.6017 32.1287
rtibia 47.6797
rfoot -20.2148 -17.4567
rtoes 8.32602
lfemur -48.8498 -11.5578 -9.90576
ltibia 44.9526
lfoot -8.33942 7.54292
ltoes -6.31907
1159
root 8.91433 16.901 -3.36675 12.1174 18.7471 -3.41494
lowerback 32.9204 2.05305 9.24272
upperback 16.8789 5.33816 -2.78449
thorax 2.69519 3.70528 -9.22214
lowerneck -15.4134 5.27297 -0.273209
upperneck 24.7904 9.38089 -6.65644
head 10.8854 3.48115 -1.0282
rclavicle -6.04305e-014 -2.3059e-014
rhumerus 61.4686 55.153 -23.0589
rradius 58.6936
rwrist -5.5256
rhand -19.8158 25.7803
rfingers 7.12502
rthumb 6.51768 -4.09945
lclavicle -6.04305e-014 -2.3059e-014
lhumerus -15.0618 -6.27122 82.8292
lradius 68.0283
lwrist 41.6819
lhand -20.6993 19.7776
lfingers 7.12502
lthumb 5.66464 49.6819
rfemur -42.4041 -18.4138 31.861
rtibia 47.177
rfoot -20.1664 -17.3875
rtoes 8.67844
lfemur -47.7408 -11.3768 -10.0274
ltibia 44.7008
lfoot -8.58303 7.56099
ltoes -5.43966
1160
root 8.92223 16.9158 -3.35023 11.7607 18.3874 -3.35318
lowerback 32.5599 2.24903 9.03973
upperback 16.8903 5.49263 -2.85764
thorax 2.85754 3.78108 -9.2161
lowerneck -15.2915 5.38136 0.177175
upperneck 24.9151 9.51069 -6.96062
head 10.9537 3.54454 -1.19507
rclavicle -6.59965e-014 4.92986e-014
rhumerus 61.6229 55.5913 -22.8743
rradius 58.8781
rwrist -5.34536
rhand -19.7064 26.2918
rfingers 7.12502
rthumb 6.62322 -3.58459
lclavicle -6.59965e-014 4.92986e-014
lhumerus -14.8138 -6.30558 82.7975
lradius 67.4534
lwrist 41.2876
lhand -20.1909 19.8563
lfingers 7.12502
lthumb 6.15547 49.7469
rfemur -41.6224 -18.1507 31.5525
rtibia 46.6942
rfoot -19.9145 -17.5163
rtoes 8.5838
lfemur -47.0402 -11.1692 -10.2521
ltibia 44.5195
lfoot -8.66015 7.56372
ltoes -5.06854
1161
root 8.931 16.9269 -3.34032 11.5481 18.3112 -3.38196
lowerback 32.0727 2.13739 8.85761
upperback 16.7901 5.26786 -2.8643
thorax 2.86351 3.64654 -9.05833
lowerneck -15.1957 5.64382 -0.205281
upperneck 25.2276 9.93733 -6.70517
head 11.0354 3.72089 -0.982036
rclavicle 7.79236e-014 2.22639e-014
rhumerus 63.3231 56.3819 -21.2382
rradius 59.1805
rwrist -5.41846
rhand -20.4221 26.532
rfingers 7.12502
rthumb 5.93231 -3.3649
lclavicle 7.79236e-014 2.22639e-014
lhumerus -14.8737 -5.28188 82.8799
lradius 66.8387
lwrist 40.1218
lhand -18.6978 19.4577
lfingers 7.12502
lthumb 7.59689 49.3013
rfemur -41.113 -18.0344 31.4235
rtibia 46.2399
rfoot -19.7879 -17.5607
rtoes 8.16864
lfemur -46.6518 -11.0554 -10.3337
ltibia 44.3726
lfoot -8.48661 7.46265
ltoes -5.20205
1162
root 8.94128 16.9419 -3.32029 11.0955 18.4506 -3.61605
lowerback 31.4624 1.88564 8.61039
upperback 16.7864 4.8542 -2.48712
thorax 2.95666 3.39387 -8.39917
lowerneck -14.8687 5.90648 -1.22448
upperneck 25.2322 10.5745 -6.74822
head 10.9505 3.9196 -0.749631
rclavicle -2.06736e-014 -2.94201e-014
rhumerus 66.2917 57.3397 -17.9559
rradius 59.708
rwrist -5.55143
rhand -21.1183 26.7396
rfingers 7.12502
rthumb 5.26013 -3.1751
lclavicle -2.06736e-014 -2.94201e-014
lhumerus -15.1436 -3.57832 83.3942
lradius 66.4539
lwrist 39.2064
lhand -17.7709 19.2863
lfingers 7.12502
lthumb 8.49143 49.0956
rfemur -40.3524 -18.179 31.4925
rtibia 45.785
rfoot -19.7842 -17.5434
rtoes 7.82983
lfemur -46.061 -10.902 -10.3635
ltibia 44.234
lfoot -8.26832 7.31857
ltoes -6.99182
1163
root 8.95194 16.9595 -3.29371 10.5308 18.5044 -3.91952
lowerback 31.0129 1.69674 8.30555
upperback 16.6752 4.51639 -2.02884
thorax 2.88467 3.15636 -7.6554
lowerneck -14.1027 6.22745 -1.83233
upperneck 25.0547 11.2981 -7.3652
head 10.7756 4.15528 -0.793351
rclavicle 1.02573e-013 -1.26825e-013
rhumerus 69.0408 58.4046 -14.8616
rradius 60.2907
rwrist -5.57705
rhand -20.5515 26.8871
rfingers 7.12502
rthumb 5.80741 -3.01328
lclavicle 1.02573e-013 -1.26825e-013
lhumerus -15.6536 -2.02906 83.9649
lradius 66.1697
lwrist 38.9044
lhand -17.9563 19.3081
lfingers 7.12502
lthumb 8.3125 49.1245
rfemur -39.4425 -18.3232 31.6203
rtibia 45.2919
rfoot -19.5605 -17.6096
rtoes 7.74358
lfemur -45.2948 -10.6761 -10.357
ltibia 44.0553
lfoot -8.36836 7.17575
ltoes -8.21125
1164
root 8.96129 16.9764 -3.26764 10.0511 18.3849 -4.00574
lowerback 30.8652 1.69586 8.05915
upperback 16.4344 4.44476 -1.88131
thorax 2.63244 3.06705 -7.35537
lowerneck -13.8424 6.45825 -1.89467
upperneck 25.4803 11.7278 -7.53153
head 10.9101 4.31308 -0.789025
rclavicle -1.98785e-014 3.49861e-014
rhumerus 70.1493 59.411 -13.6855
rradius 60.6396
rwrist -5.3176
rhand -20.084 26.9514
rfingers 7.12502
rthumb 6.25874 -2.9361
lclavicle -1.98785e-014 3.49861e-014
lhumerus -16.1794 -1.54911 84.1671
lradius 66.0366
lwrist 39.1056
lhand -18.4652 19.304
lfingers 7.12502
lthumb 7.82137 49.1393
rfemur -38.4836 -18.3142 31.4972
rtibia 44.7628
rfoot -19.3379 -17.6213
rtoes 7.67472
lfemur -44.5093 -10.5316 -10.4666
ltibia 43.8371
lfoot -8.51871 7.07125
ltoes -8.43153
1165
root 8.9661 16.9966 -3.23949 9.54405 18.145 -4.0425
lowerback 30.8639 1.85856 8.1917
upperback 16.227 4.67708 -2.08413
thorax 2.47136 3.18958 -7.70497
lowerneck -14.0914 6.45679 -1.34236
upperneck 26.3274 11.6425 -7.27968
head 11.2877 4.30448 -0.78769
rclavicle 9.54166e-015 1.98785e-015
rhumerus 69.4413 60.12 -14.5442
rradius 60.773
rwrist -4.89981
rhand -20.3464 26.5752
rfingers 7.12502
rthumb 6.00537 -3.31974
lclavicle 9.54166e-015 1.98785e-015
lhumerus -16.4993 -2.36369 83.8584
lradius 66.0741
lwrist 39.4474
lhand -18.5364 19.4956
lfingers 7.12502
lthumb 7.75266 49.3335
rfemur -37.4392 -18.0651 31.2548
rtibia 44.2174
rfoot -19.2784 -17.7328
rtoes 7.3326
lfemur -43.6473 -10.3738 -10.5908
ltibia 43.5889
lfoot -8.4302 7.0524
ltoes -8.52007
1166
root 8.9725 17.0219 -3.21091 9.08417 17.9347 -4.37644
lowerback 30.6407 2.02848 8.74982
upperback 16.0116 5.00869 -2.27232
thorax 2.4509 3.39594 -8.27927
lowerneck -13.8511 6.40443 -0.286274
upperneck 26.7223 11.4363 -7.57024
head 11.4646 4.27075 -1.10035
rclavicle 8.26944e-014 -5.48646e-014
rhumerus 68.3973 60.6698 -15.6025
rradius 61.0078
rwrist -4.79052
rhand -20.5294 26.4247
rfingers 7.12502
rthumb 5.82871 -3.47515
lclavicle 8.26944e-014 -5.48646e-014
lhumerus -16.6269 -3.36041 83.5218
lradius 65.877
lwrist 39.5883
lhand -18.4411 19.4242
lfingers 7.12502
lthumb 7.84464 49.2587
rfemur -36.6244 -17.7888 31.3717
rtibia 43.7233
rfoot -19.1721 -17.9137
rtoes 7.23646
lfemur -42.9287 -10.1445 -10.3736
ltibia 43.3174
lfoot -8.34542 7.02004
ltoes -8.15499
1167
root 8.9858 17.0456 -3.18577 8.59112 17.8389 -4.6493
lowerback 30.4672 1.98473 9.25794
upperback 15.8079 5.06677 -2.4646
thorax 2.37217 3.45891 -8.77059
lowerneck -13.3026 6.48767 0.297203
upperneck 26.6223 11.4332 -7.74536
head 11.3619 4.32883 -1.27866
rclavicle -8.50798e-014 5.24792e-014
rhumerus 68.1954 61.2431 -15.8827
rradius 61.4562
rwrist -4.99659
rhand -20.4522 26.7719
rfingers 7.12502
rthumb 5.90323 -3.12586
lclavicle -8.50798e-014 5.24792e-014
lhumerus -16.6818 -3.74685 83.2127
lradius 65.5558
lwrist 39.6383
lhand -18.6111 19.2158
lfingers 7.12502
lthumb 7.68049 49.0563
rfemur -35.8252 -17.7956 31.4335
rtibia 43.3424
rfoot -19.1012 -17.9285
rtoes 6.79426
lfemur -42.1551 -10.0003 -10.2662
ltibia 43.0237
lfoot -8.30733 6.93688
ltoes -7.483
1168
root 8.99893 17.0675 -3.16255 8.15018 17.652 -4.46961
lowerback 30.4332 1.88984 9.40341
upperback 15.6808 4.97602 -2.9089
thorax 2.27217 3.44212 -9.31198
lowerneck -13.1335 6.65524 0.668226
upperneck 26.7879 11.4881 -7.38995
head 11.387 4.42633 -1.21029
rclavicle -7.55382e-015 -8.74653e-015
rhumerus 68.1371 61.7498 -16.5045
rradius 61.7701
rwrist -4.89774
rhand -20.4079 26.6081
rfingers 7.12502
rthumb 5.94602 -3.2885
lclavicle -7.55382e-015 -8.74653e-015
lhumerus -16.6663 -3.98646 82.6135
lradius 65.3216
lwrist 39.639
lhand -18.6765 19.3214
lfingers 7.12502
lthumb 7.61742 49.1642
rfemur -34.9325 -17.7491 30.9681
rtibia 43.0416
rfoot -19.2158 -17.8008
rtoes 6.72732
lfemur -41.2959 -9.90756 -10.6553
ltibia 42.8068
lfoot -8.42674 6.92855
ltoes -5.89726
1169
root 9.00657 17.0816 -3.13787 7.95613 17.3314 -4.03181
lowerback 30.1771 1.99921 9.29224
upperback 15.5784 5.05499 -3.36745
thorax 2.29762 3.50126 -9.76318
lowerneck -13.3993 6.75047 1.15011
upperneck 27.512 11.4722 -6.96425
head 11.7152 4.47714 -1.12689
rclavicle 6.95746e-014 -1.11717e-013
rhumerus 67.563 62.2097 -17.6365
rradius 61.9247
rwrist -4.65778
rhand -20.1329 26.2169
rfingers 7.12502
rthumb 6.21148 -3.67206
lclavicle 6.95746e-014 -1.11717e-013
lhumerus -16.5521 -4.37337 82.1128
lradius 64.8743
lwrist 39.3416
lhand -18.7515 19.3828
lfingers 7.12502
lthumb 7.54497 49.2282
rfemur -34.256 -17.5016 30.2885
rtibia 42.7297
rfoot -19.2874 -17.6772
rtoes 7.68301
lfemur -40.6536 -9.71892 -11.2701
ltibia 42.6956
lfoot -8.69864 6.95357
ltoes -5.78657
1170
root 9.01526 17.0819 -3.11132 7.57682 17.0483 -4.12734
lowerback 29.8223 1.99776 9.13114
upperback 15.4481 4.97943 -3.48906
thorax 2.27149 3.44821 -9.78326
lowerneck -13.4037 7.04892 1.54582
upperneck 27.9723 11.8696 -7.0225
head 11.9479 4.66619 -1.15225
rclavicle 2.14687e-014 -8.42847e-014
rhumerus 68.8916 62.9715 -16.7092
rradius 62.2965
rwrist -4.96015
rhand -19.6376 26.4484
rfingers 7.12502
rthumb 6.68968 -3.42591
lclavicle 2.14687e-014 -8.42847e-014
lhumerus -16.7535 -3.86967 81.8512
lradius 64.5257
lwrist 39.1046
lhand -18.9536 19.3271
lfingers 7.12502
lthumb 7.34993 49.1794
rfemur -33.565 -17.2361 30.1923
rtibia 42.4182
rfoot -19.2475 -17.7485
rtoes 7.81415
lfemur -40.0284 -9.39609 -11.3308
ltibia 42.5781
lfoot -8.74024 6.83112
ltoes -8.82689
1171
root 9.02082 17.0906 -3.09 7.00946 16.9672 -4.82858
lowerback 29.4863 1.8263 9.54662
upperback 15.367 4.83784 -3.48073
thorax 2.32687 3.40015 -9.95581
lowerneck -13.3369 7.33125 2.07536
upperneck 28.0844 12.2544 -7.36462
head 12.0643 4.84462 -1.30773
rclavicle 1.25234e-014 -2.52457e-014
rhumerus 70.5771 63.5369 -15.3529
rradius 62.7821
rwrist -5.40732
rhand -19.3766 26.4715
rfingers 7.12502
rthumb 6.94159 -3.39464
lclavicle 1.25234e-014 -2.52457e-014
lhumerus -16.933 -3.43058 81.5571
lradius 64.6583
lwrist 39.5083
lhand -19.1946 19.6354
lfingers 7.12502
lthumb 7.11731 49.4957
rfemur -32.8251 -17.0252 30.77
rtibia 42.0683
rfoot -19.2243 -17.9684
rtoes 7.46484
lfemur -39.4326 -9.04873 -10.7295
ltibia 42.3628
lfoot -8.67714 6.55289
ltoes -11.0258
